{"title":"The Sunday NRL Footy Show - 26-6-2016","uid":15113207,"size":356897951,"categoryP":"video","categoryS":"tv_shows","magnet":"?xt=urn:btih:bed1a9dcb50cd4083fbedc567b7fe4676462b4ea&amp;dn=The+Sunday+NRL+Footy+Show+-+26-6-2016&amp;tr=udp%3A%2F%2Ftracker.leechers-paradise.org%3A6969&amp;tr=udp%3A%2F%2Fzer0day.ch%3A1337&amp;tr=udp%3A%2F%2Fopen.demonii.com%3A1337&amp;tr=udp%3A%2F%2Ftracker.coppersurfer.tk%3A6969&amp;tr=udp%3A%2F%2Fexodus.desync.com%3A6969","seeders":3,"leechers":1,"uploader":"Bullrout","files":1,"time":1467026820,"description":"The Sunday NRL Footy Show - 26-6-2016\r\n\r\nBreaking NRL news, expert analysis, high profile guests taking you to places and people no ticket can buy. Hosted by Yvonne Sampson.\r\n\r\nComplete name : The Sunday NRL Footy Show - 26-6-2016.mp4\r\nFormat : MPEG-4\r\nFormat profile : Base Media / Version 2\r\nCodec ID : mp42 (mp42/isom/avc1)\r\nFile size : 340 MiB\r\nDuration : 42mn 39s\r\nOverall bit rate mode : Variable\r\nOverall bit rate : 1 115 Kbps\r\n\r\nVideo\r\nID : 2\r\nFormat : AVC\r\nFormat/Info : Advanced Video Codec\r\nFormat profile :   \r\nFormat settings, CABAC : Yes\r\nFormat settings, ReFrames : 3 frames\r\nCodec ID : avc1\r\nCodec ID/Info : Advanced Video Coding\r\nDuration : 42mn 39s\r\nBit rate mode : Variable\r\nBit rate : 984 Kbps\r\nMaximum bit rate : 1 000 Kbps\r\nWidth : 720 pixels\r\nHeight : 404 pixels\r\nDisplay aspect ratio : 16:9\r\nOriginal display aspect ratio : 16:9\r\nFrame rate mode : Constant\r\nFrame rate : 25.000 fps\r\nStandard : PAL\r\nColor space : YUV\r\nChroma subsampling : 4:2:0\r\nBit depth : 8 bits\r\nScan type : Progressive\r\nBits/(Pixel*Frame) : 0.135\r\nStream size : 300 MiB (88%)\r\nWriting library : x264 core 112\r\nColor range : Limited\r\nColor primaries : BT.601 PAL\r\nTransfer characteristics : BT.470 System B, BT.470 System G\r\nMatrix coefficients : BT.601\r\n\r\nAudio\r\nID : 1\r\nFormat : AAC\r\nFormat/Info : Advanced Audio Codec\r\nFormat profile : LC\r\nCodec ID : 40\r\nDuration : 42mn 39s\r\nBit rate mode : Variable\r\nBit rate : 128 Kbps\r\nMaximum bit rate : 576 Kbps\r\nChannel(s) : 2 channels\r\nChannel positions : Front: L R\r\nSampling rate : 48.0 KHz\r\nFrame rate : 46.875 fps (1024 spf)\r\nCompression mode : Lossy\r\nStream size : 39.1 MiB (11%)","torrent":{"xt":"urn:btih:bed1a9dcb50cd4083fbedc567b7fe4676462b4ea","amp;dn":"The+Sunday+NRL+Footy+Show+-+26-6-2016","amp;tr":["udp%3A%2F%2Ftracker.leechers-paradise.org%3A6969","udp%3A%2F%2Fzer0day.ch%3A1337","udp%3A%2F%2Fopen.demonii.com%3A1337","udp%3A%2F%2Ftracker.coppersurfer.tk%3A6969","udp%3A%2F%2Fexodus.desync.com%3A6969"],"infoHash":"bed1a9dcb50cd4083fbedc567b7fe4676462b4ea","infoHashBuffer":{"type":"Buffer","data":[190,209,169,220,181,12,212,8,63,190,220,86,123,127,228,103,100,98,180,234]},"announce":[],"urlList":[]}}